<?xml version="1.0" encoding="UTF-8" standalone="no"?>
<svg
   viewBox="0 0 334 40"
   version="1.1"
   id="svg4"
   sodipodi:docname="license-cc-by-nc-sa.svg"
   inkscape:version="1.2.1 (9c6d41e410, 2022-07-14)"
   xml:space="preserve"
   width="334"
   height="40"
   xmlns:inkscape="http://www.inkscape.org/namespaces/inkscape"
   xmlns:sodipodi="http://sodipodi.sourceforge.net/DTD/sodipodi-0.dtd"
   xmlns="http://www.w3.org/2000/svg"
   xmlns:svg="http://www.w3.org/2000/svg"><defs
     id="defs8" /><sodipodi:namedview
     id="namedview6"
     pagecolor="#ffffff"
     bordercolor="#000000"
     borderopacity="0.25"
     inkscape:showpageshadow="2"
     inkscape:pageopacity="0.0"
     inkscape:pagecheckerboard="0"
     inkscape:deskcolor="#d1d1d1"
     showgrid="false"
     inkscape:zoom="1.4142136"
     inkscape:cx="110.30866"
     inkscape:cy="-71.417785"
     inkscape:window-width="1366"
     inkscape:window-height="705"
     inkscape:window-x="-8"
     inkscape:window-y="-8"
     inkscape:window-maximized="1"
     inkscape:current-layer="svg4" /><path
     d="m 14.972,0 c 4.196,0 7.769,1.465 10.715,4.393 A 14.426,14.426 0 0 1 28.9,9.228 C 29.633,11.04 30,12.964 30,15 c 0,2.054 -0.363,3.978 -1.085,5.772 a 13.77,13.77 0 0 1 -3.2,4.754 15.417,15.417 0 0 1 -4.983,3.322 A 14.932,14.932 0 0 1 14.973,30 c -1.982,0 -3.88,-0.38 -5.692,-1.14 A 15.087,15.087 0 0 1 4.406,25.567 C 2.969,24.13 1.875,22.509 1.125,20.705 A 14.71,14.71 0 0 1 0,15 C 0,13.018 0.38,11.112 1.138,9.281 A 15.062,15.062 0 0 1 4.446,4.366 C 7.303,1.456 10.812,0 14.972,0 Z m 0.055,2.706 c -3.429,0 -6.313,1.196 -8.652,3.589 a 12.896,12.896 0 0 0 -2.72,4.031 11.814,11.814 0 0 0 -0.95,4.675 c 0,1.607 0.316,3.156 0.95,4.646 a 12.428,12.428 0 0 0 2.72,3.992 12.362,12.362 0 0 0 3.99,2.679 c 1.483,0.616 3.037,0.924 4.662,0.924 1.607,0 3.164,-0.312 4.675,-0.937 A 12.954,12.954 0 0 0 23.786,23.6 c 2.339,-2.286 3.508,-5.152 3.508,-8.6 0,-1.66 -0.304,-3.231 -0.91,-4.713 A 11.994,11.994 0 0 0 23.733,6.322 C 21.321,3.912 18.419,2.706 15.027,2.706 Z m -0.188,9.803 -2.01,1.045 c -0.215,-0.445 -0.477,-0.758 -0.79,-0.937 -0.312,-0.178 -0.602,-0.268 -0.87,-0.268 -1.34,0 -2.01,0.884 -2.01,2.652 0,0.803 0.17,1.446 0.509,1.928 0.34,0.482 0.84,0.724 1.5,0.724 0.876,0 1.492,-0.43 1.85,-1.286 l 1.847,0.937 a 4.407,4.407 0 0 1 -1.634,1.728 c -0.696,0.42 -1.464,0.63 -2.303,0.63 -1.34,0 -2.42,-0.41 -3.242,-1.233 -0.821,-0.82 -1.232,-1.964 -1.232,-3.428 0,-1.428 0.416,-2.562 1.246,-3.401 0.83,-0.84 1.879,-1.26 3.147,-1.26 1.858,0 3.188,0.723 3.992,2.17 z m 8.652,0 -1.983,1.045 c -0.214,-0.445 -0.478,-0.758 -0.79,-0.937 -0.313,-0.178 -0.613,-0.268 -0.897,-0.268 -1.34,0 -2.01,0.884 -2.01,2.652 0,0.803 0.17,1.446 0.51,1.928 0.338,0.482 0.838,0.724 1.5,0.724 0.874,0 1.49,-0.43 1.847,-1.286 l 1.875,0.937 a 4.606,4.606 0 0 1 -1.66,1.728 c -0.696,0.42 -1.455,0.63 -2.277,0.63 -1.357,0 -2.441,-0.41 -3.253,-1.233 -0.814,-0.82 -1.22,-1.964 -1.22,-3.428 0,-1.428 0.415,-2.562 1.246,-3.401 0.83,-0.84 1.879,-1.26 3.147,-1.26 1.857,0 3.18,0.723 3.965,2.17 z"
     fill="currentColor"
     id="path2" /><path
     d="m 49.824028,0 c 4.213,0 7.768,1.446 10.66,4.34 2.911,2.91 4.367,6.463 4.367,10.66 0,4.215 -1.43,7.723 -4.287,10.526 -3.035,2.984 -6.615,4.474 -10.74,4.474 -4.054,0 -7.571,-1.474 -10.553,-4.42 -2.946,-2.947 -4.42,-6.473 -4.42,-10.58 0,-4.107 1.474,-7.66 4.42,-10.66 2.893,-2.894 6.41,-4.34 10.553,-4.34 z m 0.054,2.706 c -3.41,0 -6.295,1.196 -8.652,3.589 -2.447,2.5 -3.67,5.402 -3.67,8.706 0,3.321 1.214,6.196 3.642,8.624 2.429,2.429 5.322,3.642 8.679,3.642 3.339,0 6.25,-1.222 8.732,-3.67 2.358,-2.267 3.536,-5.133 3.536,-8.598 0,-3.41 -1.197,-6.311 -3.589,-8.705 -2.392,-2.392 -5.285,-3.588 -8.678,-3.588 z m 4.018,8.57 v 6.134 h -1.715 v 7.286 h -4.66 V 17.41 h -1.714 v -6.134 a 0.93,0.93 0 0 1 0.28,-0.683 0.933,0.933 0 0 1 0.684,-0.281 h 6.161 c 0.25,0 0.474,0.093 0.67,0.28 a 0.912,0.912 0 0 1 0.294,0.684 z m -6.135,-3.856 c 0,-1.41 0.696,-2.116 2.09,-2.116 1.394,0 2.09,0.705 2.09,2.116 0,1.393 -0.697,2.09 -2.09,2.09 -1.393,0 -2.09,-0.697 -2.09,-2.09 z"
     fill="currentColor"
     id="path881" /><path
     d="m 84.675054,0 c 4.214,0 7.768,1.446 10.66,4.339 2.911,2.893 4.367,6.447 4.367,10.661 0,4.215 -1.429,7.723 -4.287,10.527 -3.035,2.983 -6.616,4.473 -10.74,4.473 -4.071998,0 -7.589998,-1.482 -10.552998,-4.446 -2.946,-2.947 -4.42,-6.464 -4.42,-10.554 0,-4.107 1.474,-7.66 4.42,-10.66 2.893,-2.894 6.41,-4.34 10.552998,-4.34 z M 73.077056,10.956 c -0.446,1.232 -0.67,2.58 -0.67,4.045 0,3.321 1.214,6.196 3.642,8.624 2.447,2.412 5.339998,3.617 8.678998,3.617 3.375,0 6.285,-1.223 8.733,-3.67 0.875,-0.839 1.561,-1.714 2.061,-2.626 l -5.651,-2.518 a 3.866,3.866 0 0 1 -1.433,2.317 c -0.76,0.598 -1.657,0.943 -2.693,1.031 v 2.304 h -1.74 v -2.304 c -1.661,-0.017 -3.179998,-0.615 -4.553998,-1.794 l 2.062998,-2.089 c 0.981,0.91 2.098,1.366 3.348,1.366 0.517,0 0.96,-0.116 1.326,-0.349 0.366,-0.231 0.55,-0.615 0.55,-1.151 0,-0.376 -0.135,-0.68 -0.402,-0.911 l -1.447,-0.617 -1.767,-0.804 -2.383998,-1.044 z M 84.729054,2.678 c -3.41,0 -6.294998,1.206 -8.651998,3.616 -0.59,0.59 -1.143,1.26 -1.66,2.01 l 5.732,2.571 a 3.513,3.513 0 0 1 1.419998,-1.888 c 0.695,-0.473 1.508,-0.737 2.437,-0.79 V 5.893 h 1.741 v 2.304 c 1.376,0.071 2.625,0.535 3.75,1.392 l -1.955,2.011 c -0.84,-0.59 -1.697,-0.884 -2.572,-0.884 -0.464,0 -0.88,0.09 -1.245,0.267 -0.366,0.179 -0.55,0.483 -0.55,0.911 0,0.125 0.045,0.25 0.134,0.375 l 1.902,0.858 1.313,0.59 2.41,1.07 7.687,3.429 c 0.25,-1.054 0.375,-2.125 0.375,-3.214 0,-3.447 -1.196,-6.349 -3.588,-8.707 -2.375,-2.41 -5.27,-3.616 -8.68,-3.616 z"
     fill="currentColor"
     id="path914" /><path
     d="m 119.52608,0 c 4.196,0 7.75,1.455 10.66,4.366 2.911,2.894 4.367,6.438 4.367,10.634 0,4.197 -1.43,7.714 -4.287,10.553 -3.017,2.965 -6.598,4.447 -10.74,4.447 -4.054,0 -7.571,-1.473 -10.553,-4.42 -2.946,-2.946 -4.42,-6.472 -4.42,-10.58 0,-4.088 1.474,-7.633 4.42,-10.633 2.91,-2.912 6.428,-4.367 10.553,-4.367 z m 0.054,2.706 c -3.41,0 -6.295,1.205 -8.652,3.616 -2.447,2.483 -3.67,5.375 -3.67,8.678 0,3.34 1.214,6.214 3.642,8.625 2.429,2.43 5.322,3.643 8.679,3.643 3.339,0 6.25,-1.223 8.732,-3.67 2.358,-2.285 3.536,-5.151 3.536,-8.598 0,-3.428 -1.197,-6.321 -3.589,-8.678 -2.375,-2.412 -5.268,-3.616 -8.678,-3.616 z m -6.697,10.178 c 0.286,-1.84 1.026,-3.264 2.223,-4.273 1.196,-1.008 2.651,-1.513 4.366,-1.513 2.356,0 4.232,0.76 5.625,2.277 1.393,1.517 2.09,3.464 2.09,5.839 0,2.304 -0.724,4.219 -2.17,5.745 -1.447,1.526 -3.321,2.29 -5.626,2.29 -1.696,0 -3.16,-0.508 -4.392,-1.527 -1.233,-1.018 -1.973,-2.464 -2.224,-4.339 h 3.778 c 0.09,1.822 1.187,2.733 3.295,2.733 1.053,0 1.902,-0.456 2.544,-1.366 0.644,-0.91 0.965,-2.126 0.965,-3.643 0,-1.59 -0.294,-2.799 -0.883,-3.63 -0.59,-0.83 -1.437,-1.245 -2.545,-1.245 -2.001,0 -3.126,0.884 -3.375,2.651 h 1.098 l -2.973,2.973 -2.973,-2.973 h 1.177 z"
     fill="currentColor"
     id="path931" /><text
     xml:space="preserve"
     style="font-style:normal;font-variant:normal;font-weight:bold;font-stretch:normal;font-size:21.3333px;font-family:'Century Gothic';-inkscape-font-specification:'Century Gothic, Bold';font-variant-ligatures:normal;font-variant-caps:normal;font-variant-numeric:normal;font-variant-east-asian:normal;text-align:center;text-anchor:middle;fill:#000000;fill-opacity:1;stroke:none;stroke-width:1.25858;stroke-linejoin:bevel;stroke-dasharray:5.03434, 1.25858"
     x="243.76019"
     y="22.661446"
     id="text1001"><tspan
       sodipodi:role="line"
       id="tspan999"
       x="243.76019"
       y="22.661446">CC BY-NC-SA 4.0</tspan></text></svg>
